<svg width="100" height="100" viewBox="0 0 100 100" fill="none" xmlns="http://www.w3.org/2000/svg">
<g clip-path="url(#clip0_23_802)">
<mask id="mask0_23_802" style="mask-type:luminance" maskUnits="userSpaceOnUse" x="71" y="2" width="27" height="27">
<path d="M71.7334 2.73535H97.3334V28.2666H71.7334V2.73535Z" fill="white"/>
</mask>
<g mask="url(#mask0_23_802)">
<path d="M80.7187 28.0886C80.0573 28.0886 79.4437 27.6542 79.2531 26.9865C79.0208 26.1709 79.4916 25.3313 80.3021 25.099L93.2906 21.3948L94.125 15.5813L84.4166 5.87397L78.6041 6.70731L74.8875 19.6854C74.6552 20.4948 73.8104 20.9594 73 20.7334C72.1896 20.5011 71.725 19.6552 71.9573 18.8448L75.9479 4.9146C76.1094 4.33752 76.6031 3.9146 77.1927 3.83127L84.7385 2.75314C85.2208 2.68127 85.6979 2.84272 86.0364 3.18231L96.8166 13.9615C97.1562 14.3011 97.3166 14.7833 97.2458 15.2604L96.1677 22.8C96.0844 23.3959 95.6614 23.8896 95.0781 24.05L81.1354 28.0344C80.9989 28.0709 80.8552 28.0886 80.7187 28.0886Z" fill="#987F61"/>
</g>
<path d="M78.6759 25.4626C78.1697 25.4626 77.6749 25.2063 77.3895 24.7532C76.9311 24.0386 77.1447 23.098 77.854 22.6448L88.1509 16.1053L91.1999 11.0198C91.629 10.299 92.5645 10.0667 93.2905 10.5011C94.0113 10.9303 94.2436 11.8657 93.8092 12.5917L90.5749 17.9813C90.4561 18.1844 90.2895 18.3573 90.0863 18.4823L79.4915 25.2178C79.2353 25.3782 78.9551 25.4626 78.6759 25.4626Z" fill="#987F61"/>
<path d="M76.0615 22.8532C75.7812 22.8532 75.501 22.7761 75.2448 22.6094C74.5365 22.1625 74.3281 21.2157 74.7812 20.5073L81.5167 9.91149C81.6417 9.7094 81.8146 9.54274 82.0167 9.42294L87.4062 6.18961C88.1333 5.75524 89.0625 5.98753 89.4969 6.70732C89.9323 7.4344 89.7 8.36982 88.9792 8.79794L83.8927 11.8469L77.3531 22.1448C77.0562 22.6032 76.5677 22.8532 76.0615 22.8532Z" fill="#987F61"/>
<path d="M94.6603 24.1104C94.2676 24.1104 93.8801 23.9614 93.5822 23.6635L76.3353 6.41558C75.7395 5.81974 75.7395 4.85516 76.3353 4.25933C76.9311 3.66453 77.8895 3.66453 78.4853 4.25933L95.7384 21.5072C96.3343 22.1031 96.3343 23.0677 95.7384 23.6635C95.4405 23.9614 95.0478 24.1104 94.6603 24.1104Z" fill="#987F61"/>
<path d="M56.1041 58.2834C57.4083 58.3553 58.4677 58.248 59.2781 58.1293C56.5562 49.9157 50.077 43.4366 41.8635 40.7209C41.7385 41.5126 41.6437 42.5605 41.7145 43.9011C48.3677 46.3543 53.6437 51.6376 56.1041 58.2834ZM56.9197 61.3564C56.276 61.3564 55.5802 61.3209 54.8229 61.2439C54.2218 61.1782 53.7218 60.7668 53.5364 60.1959C51.4406 53.6855 46.3072 48.5584 39.8031 46.4678C39.2312 46.2772 38.8145 45.7709 38.7552 45.1689C38.4333 42.0366 38.8802 39.9522 39.1 38.9511C39.1302 38.8032 39.1604 38.6897 39.1718 38.6064C39.225 38.172 39.4697 37.7668 39.8385 37.5282C40.202 37.2782 40.6552 37.1949 41.0781 37.3022C51.6135 40.1011 59.8979 48.3855 62.6968 58.9272C62.8104 59.3501 62.7208 59.8022 62.476 60.172C62.226 60.5345 61.827 60.7793 61.3864 60.8324C61.2968 60.8386 61.1656 60.8741 60.9937 60.9105C60.225 61.0709 58.8312 61.3564 56.9197 61.3564Z" fill="#987F61"/>
<path d="M30.8218 51.5594C32.1437 55.6448 34.4427 59.3969 37.5218 62.476C40.5948 65.5438 44.3291 67.8427 48.4031 69.1646C48.6291 68.0865 48.7187 66.8542 48.6885 66.0375C45.3302 64.8344 42.2333 62.8698 39.6843 60.3146C37.1291 57.7656 35.1573 54.6511 33.9489 51.2677C33.002 51.1906 31.8645 51.2917 30.8218 51.5594ZM49.4218 72.5771C49.2906 72.5771 49.1593 72.5594 49.0281 72.5292C43.8885 71.1656 39.1656 68.4323 35.3666 64.6323C31.5666 60.8323 28.8385 56.1094 27.4687 50.9698C27.2729 50.2375 27.6479 49.475 28.3448 49.1771C30.1843 48.3917 33.1031 47.8552 35.4677 48.4271C35.9854 48.5521 36.402 48.9448 36.5573 49.4511C37.576 52.7146 39.4041 55.7281 41.8395 58.1583C44.3114 60.6365 47.2354 62.4104 50.5291 63.4417C51.0239 63.5896 51.4052 63.9833 51.5416 64.4771C51.9645 65.9719 51.7145 69.575 50.8208 71.6542C50.577 72.226 50.0166 72.5771 49.4218 72.5771Z" fill="#987F61"/>
<path d="M69.7063 63.8583C69.7844 64.7989 69.8198 65.7583 69.8198 66.7708C69.8198 66.9489 69.8198 67.1333 69.8136 67.3125C72.2136 66.0322 74.4 64.4114 76.3355 62.476C85.7448 53.0666 87.0615 38.326 79.474 27.4395C78.9198 26.6291 78.2823 25.8072 77.5209 24.9197C77.1511 24.5093 76.7584 24.0864 76.3355 23.6635C75.1615 22.4906 73.8875 21.4364 72.5532 20.5187C61.6542 12.9375 46.9261 14.2593 37.5219 23.6635C35.5802 25.6052 33.9605 27.7906 32.6865 30.1843C33.8771 30.1614 35.0323 30.2031 36.1407 30.2916C37.1292 28.6843 38.3198 27.1833 39.6844 25.825C49.1896 16.3145 64.6625 16.3145 74.173 25.825C78.7834 30.4291 81.3198 36.5572 81.3198 43.0729C81.3198 49.5822 78.7834 55.7052 74.173 60.3145C72.8157 61.6781 71.3146 62.8697 69.7063 63.8583ZM68.1584 71.3145C67.8427 71.3145 67.5209 71.2135 67.2584 71.0229C66.824 70.7072 66.5917 70.1833 66.6396 69.6531C66.7292 68.7114 66.7709 67.7416 66.7709 66.7708C66.7709 65.5135 66.7105 64.3468 66.5802 63.2031C66.5146 62.5958 66.8177 62 67.3542 61.702C69.0459 60.7552 70.6177 59.5645 72.023 58.1583C76.0552 54.126 78.2709 48.7666 78.2709 43.0729C78.2709 37.3729 76.0552 32.0135 72.023 27.975C63.6969 19.6552 50.1542 19.6552 41.8396 27.975C40.4344 29.3812 39.2438 30.9531 38.2969 32.6447C37.9927 33.1802 37.4094 33.4781 36.7959 33.4187C34.7709 33.1927 32.525 33.1625 30.3459 33.3593C29.8094 33.4072 29.2917 33.175 28.9823 32.7395C28.6605 32.3114 28.5948 31.7395 28.8032 31.2447C30.3459 27.5937 32.5552 24.3187 35.3667 21.5072C45.8188 11.0614 62.1844 9.59058 74.2865 18.0114C75.7698 19.0239 77.1865 20.2031 78.4907 21.5072C78.95 21.9656 79.3844 22.4302 79.8136 22.9072C80.6709 23.9072 81.374 24.8125 81.9813 25.7062C90.4146 37.7958 88.949 54.1739 78.4907 64.6322C75.6865 67.4375 72.4105 69.6468 68.7532 71.1958C68.5573 71.2729 68.3605 71.3145 68.1584 71.3145Z" fill="#987F61"/>
<mask id="mask1_23_802" style="mask-type:luminance" maskUnits="userSpaceOnUse" x="2" y="38" width="60" height="60">
<path d="M2.73535 38.1333H61.8666V97.3333H2.73535V38.1333Z" fill="white"/>
</mask>
<g mask="url(#mask1_23_802)">
<path d="M21.0729 42.1614C11.8354 46.7416 5.78431 56.3364 5.78431 66.7708C5.78431 81.9041 18.0947 94.2135 33.2281 94.2135C43.6624 94.2135 53.2572 88.1635 57.8312 78.926C56.6343 78.9853 55.4312 78.9791 54.3708 78.926C50.0291 86.501 42.0187 91.1645 33.2281 91.1645C19.7739 91.1645 8.83327 80.2239 8.83327 66.7708C8.83327 57.9801 13.4968 49.9697 21.0729 45.628C21.0426 45.0801 21.0312 44.5082 21.0312 43.901C21.0312 43.3228 21.0489 42.7447 21.0729 42.1614ZM33.2281 97.2635C16.4156 97.2635 2.73535 83.5833 2.73535 66.7708C2.73535 54.2457 10.5843 42.8103 22.2635 38.3145C22.7645 38.1176 23.3301 38.2072 23.7531 38.5343C24.176 38.8676 24.3958 39.3926 24.3301 39.9218C24.1635 41.2562 24.0801 42.5968 24.0801 43.901C24.0801 44.7937 24.1156 45.5978 24.1812 46.3541C24.2354 46.9739 23.9135 47.5635 23.3656 47.8437C16.2843 51.5353 11.8833 58.7895 11.8833 66.7708C11.8833 78.5385 21.4593 88.1155 33.2281 88.1155C41.2145 88.1155 48.4624 83.7145 52.1551 76.6333C52.4354 76.0791 53.0364 75.7572 53.6437 75.8166C55.4843 75.9832 57.8364 75.9478 60.0697 75.6739C60.6062 75.6082 61.1301 75.8228 61.4635 76.2458C61.7916 76.6687 61.8749 77.228 61.6843 77.7343C57.1874 89.4135 45.7531 97.2635 33.2281 97.2635Z" fill="#987F61"/>
</g>
<path d="M17.9812 25.6052C17.5885 25.6052 17.201 25.4562 16.9041 25.1583L12.3302 20.5843C11.7343 19.9885 11.7343 19.0239 12.3302 18.4281C12.925 17.8322 13.8906 17.8322 14.4854 18.4281L19.0593 23.002C19.6552 23.5979 19.6552 24.5625 19.0593 25.1583C18.7614 25.4562 18.375 25.6052 17.9812 25.6052Z" fill="#987F61"/>
<path d="M80.4928 88.1156C80.099 88.1156 79.7125 87.9667 79.4146 87.6687L74.8407 83.0948C74.2448 82.4989 74.2448 81.5344 74.8407 80.9385C75.4355 80.3437 76.4011 80.3437 76.9959 80.9385L81.5698 85.5125C82.1657 86.1083 82.1657 87.0729 81.5698 87.6687C81.273 87.9667 80.8855 88.1156 80.4928 88.1156Z" fill="#987F61"/>
<path d="M28.6542 21.0312C27.8146 21.0312 27.1292 20.3458 27.1292 19.5062V13.4073C27.1292 12.5677 27.8146 11.8833 28.6542 11.8833C29.4937 11.8833 30.1792 12.5677 30.1792 13.4073V19.5062C30.1792 20.3458 29.4937 21.0312 28.6542 21.0312Z" fill="#987F61"/>
<path d="M86.5907 72.8688H80.4928C79.6521 72.8688 78.9678 72.1844 78.9678 71.3448C78.9678 70.5042 79.6521 69.8198 80.4928 69.8198H86.5907C87.4303 69.8198 88.1157 70.5042 88.1157 71.3448C88.1157 72.1844 87.4303 72.8688 86.5907 72.8688Z" fill="#987F61"/>
<path d="M13.4073 36.277H7.30942C6.46984 36.277 5.78442 35.5926 5.78442 34.753C5.78442 33.9134 6.46984 33.228 7.30942 33.228H13.4073C14.248 33.228 14.9323 33.9134 14.9323 34.753C14.9323 35.5926 14.248 36.277 13.4073 36.277Z" fill="#987F61"/>
<path d="M65.2459 94.2135C64.4064 94.2135 63.7209 93.5292 63.7209 92.6896V86.5906C63.7209 85.751 64.4064 85.0667 65.2459 85.0667C66.0855 85.0667 66.7709 85.751 66.7709 86.5906V92.6896C66.7709 93.5292 66.0855 94.2135 65.2459 94.2135Z" fill="#987F61"/>
</g>
<defs>
<clipPath id="clip0_23_802">
<rect width="100" height="100" fill="white"/>
</clipPath>
</defs>
</svg>
