<svg width="90" height="90" viewBox="0 0 90 90" fill="none" xmlns="http://www.w3.org/2000/svg">
<g clip-path="url(#clip0_21_775)">
<mask id="path-1-outside-1_21_775" maskUnits="userSpaceOnUse" x="-0.287354" y="-0.417969" width="91" height="91" fill="black">
<rect fill="white" x="-0.287354" y="-0.417969" width="91" height="91"/>
<path d="M84.6792 60.0572C84.1658 58.2833 82.8031 53.5719 78.1954 49.7512C76.521 48.3643 73.4059 45.782 68.7656 45.6231C68.4649 45.6135 67.128 45.5917 65.4387 45.9026C63.8729 45.2086 62.4799 44.7483 61.4042 44.458C58.5537 43.6889 55.6072 43.3703 52.644 43.5203L52.4188 43.532L52.2702 43.7013C52.2439 43.731 49.6153 46.6769 45.436 46.6769H45.3786C41.5386 46.652 39.764 43.8879 39.6908 43.7711L39.5443 43.5341L39.2658 43.5203C36.3013 43.3717 33.3562 43.6889 30.505 44.458C28.5024 44.9984 25.4212 46.0992 22.1153 48.2787C21.0892 48.9551 20.2222 49.6201 19.4335 50.2932C14.1607 51.4175 10.4049 56.3169 10.8668 61.8276C11.1087 64.723 12.4638 67.3502 14.6826 69.2264C16.6638 70.9014 19.1218 71.7983 21.6869 71.7977C21.9944 71.7977 22.3032 71.7852 22.6128 71.759C28.5895 71.2587 33.0452 65.9896 32.5442 60.0129C32.3024 57.1182 30.9473 54.4903 28.7284 52.6141C26.6728 50.876 24.1 49.986 21.4339 50.0586C21.8323 49.7611 22.2462 49.4636 22.6999 49.1645C25.8869 47.0631 28.8535 46.0024 30.7814 45.4835C33.4412 44.7662 36.1901 44.4587 38.9528 44.5685C39.525 45.3459 41.5773 47.7141 45.3717 47.7383H45.4374C49.5483 47.7383 52.2405 45.261 52.9108 44.5706C55.6935 44.4531 58.4535 44.762 61.1277 45.4835C61.8533 45.6788 62.7262 45.9512 63.7023 46.3265C61.8754 46.8853 59.9196 47.8778 58.4908 49.6483C55.4233 53.4482 53.4968 57.3933 52.7636 61.3736C52.2626 64.0879 51.6393 67.4663 53.6495 69.603C54.9182 70.9525 56.7446 71.2635 58.0776 71.4902C58.741 71.6028 59.4154 71.6595 60.094 71.6595C61.552 71.6588 63.0295 71.4003 64.4523 70.891C64.4816 70.8931 64.5112 70.8934 64.5405 70.8954C65.8741 71.4804 67.2928 71.7949 68.7359 71.7949C69.022 71.7949 69.3088 71.7831 69.5956 71.759C70.8109 71.6575 71.9375 71.3471 72.9658 70.8811C73.3272 70.8561 73.6912 70.8393 74.0499 70.8081C75.8597 71.3284 77.7185 71.5689 79.5864 71.524C81.7811 71.4708 83.1058 71.439 84.1762 70.5863C87.0591 68.2907 85.268 62.0943 84.6792 60.0572ZM29.2011 67.2576C27.5081 69.2595 25.1371 70.4827 22.5244 70.7017C19.9068 70.9215 17.3694 70.1074 15.3681 68.4158C13.3656 66.7228 12.1424 64.3519 11.9241 61.7391C11.8928 61.3649 11.8885 60.9931 11.899 60.6232C12.2638 60.7477 12.6911 60.8734 13.2377 60.9693C13.6993 61.0495 14.3876 61.1345 15.2375 61.1345C16.1974 61.1345 17.3631 61.026 18.6415 60.6805C19.4583 60.46 20.8252 60.091 22.3033 59.0269C22.8664 58.6212 23.3875 58.1569 23.8567 57.642C24.6527 58.3759 25.5573 58.9626 26.5524 59.3889C28.5045 60.2248 30.6678 60.1835 31.488 60.1298C31.6981 62.7325 30.8879 65.263 29.2011 67.2576ZM20.8867 51.1388C21.1665 51.1153 21.445 51.1043 21.7221 51.1043C24.037 51.1043 26.2552 51.9135 28.0429 53.4247C29.7794 54.8928 30.9271 56.8713 31.3445 59.0745C30.5927 59.1157 28.659 59.1363 26.9704 58.4132C25.9291 57.9668 24.9989 57.3228 24.2056 56.4984L23.7896 56.0658L23.4117 56.5323C22.9086 57.1528 22.3267 57.7022 21.6827 58.1658C20.3615 59.1167 19.1114 59.4546 18.3651 59.6564C16.1518 60.2541 14.3178 60.0807 13.4201 59.9231C12.8192 59.8181 12.3778 59.6733 11.9946 59.5328C12.2499 57.7218 13.0001 56.0136 14.21 54.5829C15.1433 53.4793 16.2876 52.6226 17.5599 52.0301C18.312 51.6799 19.1058 51.4161 19.9357 51.2654C20.2485 51.2086 20.5657 51.1657 20.8867 51.1388ZM72.6923 69.8355C71.7253 70.2948 70.662 70.6052 69.5071 70.7017C67.8847 70.8377 66.2643 70.5363 64.7694 69.842C63.8946 69.4357 63.0624 68.8961 62.299 68.2271C60.2847 66.4616 59.0167 64.043 58.9075 61.7578C58.8432 60.4158 59.1784 59.0559 59.9033 57.7111C61.4131 57.7201 62.921 57.6642 64.4239 57.5474L64.5856 57.5342C67.2495 57.3269 69.353 57.1632 71.7972 56.3125C73.2089 55.8212 74.5785 55.1896 75.8749 54.4329C77.0158 55.6788 78.2859 57.5999 78.469 60.0959C78.7396 63.791 76.501 68.0266 72.6923 69.8355ZM83.5149 69.7557C82.7236 70.3866 81.6 70.4136 79.5601 70.4626C77.9309 70.5023 76.3019 70.2974 74.7108 69.8769C77.9563 67.5706 79.7873 63.5674 79.5276 60.0185C79.3058 56.9904 77.675 54.7418 76.3462 53.3881L76.0511 53.0875L75.6918 53.3065C74.3512 54.1226 72.9235 54.7971 71.4489 55.3105C69.134 56.1156 67.1915 56.2669 64.5034 56.4763L64.341 56.4887C62.7641 56.6124 61.1699 56.6642 59.5999 56.647L59.2896 56.6435L59.1341 56.9116C58.202 58.5231 57.7687 60.1705 57.8475 61.8089C57.9705 64.3761 59.3726 67.0738 61.599 69.0253C62.0948 69.4598 62.6179 69.8431 63.1606 70.1786C61.5316 70.6199 59.8552 70.7169 58.2559 70.4439C57.0044 70.2311 55.4475 69.9665 54.4221 68.876C52.7802 67.1305 53.3261 64.1743 53.807 61.5657C54.5077 57.7609 56.3618 53.9755 59.3173 50.3144C60.933 48.3128 63.3256 47.4117 65.3034 47.006C65.9933 46.8645 66.6309 46.7814 67.1681 46.7362C67.6966 46.6917 68.1315 46.6796 68.4146 46.6796C68.5604 46.6796 68.6675 46.6817 68.729 46.6845C73.0072 46.8303 75.8307 49.1708 77.5223 50.5722C81.8744 54.1807 83.1714 58.6641 83.66 60.3529C85.1077 65.3629 85.0593 68.5264 83.5149 69.7557ZM27.7389 39.7176L28.3428 39.9463C29.6979 40.4604 31.0046 40.9559 32.0564 40.9559C32.6154 40.9559 33.1033 40.8156 33.4875 40.4639C34.0797 39.9228 34.1267 38.9498 34.2241 36.9521C34.2432 36.5703 34.2514 36.1856 34.2542 35.8009C36.261 37.2557 38.4634 38.2912 40.8158 38.8821C42.6366 39.3396 44.2212 39.4439 45.2867 39.4439C45.758 39.4439 46.1277 39.4232 46.3716 39.4045C47.6106 39.305 50.0472 38.9512 52.4506 37.6901C53.8262 36.9683 55.0793 35.9954 56.1783 34.8487C56.2373 35.6871 56.2898 36.4063 56.3314 36.9652C56.5186 39.4743 56.5573 39.9967 57.0666 40.4639C57.4515 40.8156 57.9387 40.9559 58.4984 40.9559C59.5502 40.9559 60.8569 40.4604 62.212 39.9463L62.8159 39.7176C64.9857 38.9008 66.6995 38.2554 67.8293 36.6218C68.398 35.8015 68.9529 34.3614 68.7629 29.9023C68.6523 27.2923 68.5563 25.0388 67.7277 21.8491C66.5343 17.2503 65.0486 11.5272 60.0145 7.07359C57.6015 4.93815 54.9514 3.62495 52.4706 2.81606L52.4692 2.81481L52.4687 2.81542C49.6986 1.91242 47.1476 1.64193 45.3781 1.58911L45.3779 1.58203C45.3462 1.58272 45.3097 1.58475 45.2774 1.58557C45.2451 1.58475 45.2086 1.58273 45.1768 1.58203L45.1767 1.58911C41.8221 1.68922 35.649 2.55309 30.5403 7.0736C25.5082 11.5259 24.0218 17.2489 22.827 21.8491C21.9985 25.0388 21.9025 27.2923 21.7919 29.9023C21.6019 34.3614 22.1568 35.8015 22.7248 36.6218C23.8553 38.2554 25.569 38.9008 27.7389 39.7176ZM51.9572 36.7503C49.7217 37.9237 47.4448 38.254 46.288 38.3459C45.5445 38.4046 43.5488 38.4737 41.0742 37.8525C38.695 37.2548 36.4788 36.1689 34.4738 34.6344C33.5933 32.9086 33.03 31.0725 32.8234 29.1622C32.4717 25.9171 33.2035 23.1945 33.9491 21.3792C36.6427 21.8484 41.513 22.1172 46.5796 19.55C50.4998 17.5654 52.9315 14.6921 54.2811 12.6315L53.8374 12.3406L54.2832 12.6281C54.3561 12.5151 54.4343 12.378 54.5134 12.227C56.3889 13.7878 57.8553 15.779 58.7693 18.0353C59.528 19.9066 59.7395 21.5471 59.7982 22.3577C60.2121 28.0959 56.9146 34.1486 51.9572 36.7503ZM59.3111 7.86827C64.1026 12.1077 65.5434 17.6566 66.7009 22.1158C67.5011 25.1964 67.5902 27.293 67.7029 29.9479C67.9026 34.651 67.2157 35.644 66.9566 36.0178C66.0154 37.3792 64.5939 37.914 62.4421 38.7246L61.8354 38.9533C60.1513 39.5925 58.4079 40.2517 57.7839 39.681C57.6028 39.5151 57.5476 39.0031 57.39 36.8864C57.332 36.107 57.2532 35.0269 57.164 33.7264L57.1525 33.7272C59.6985 30.5364 61.1495 26.338 60.8569 22.2817C60.794 21.4082 60.566 19.6433 59.7533 17.6373C58.7304 15.1127 57.0625 12.9001 54.9258 11.198C55.2082 10.2591 55.3581 8.98174 55.0232 7.3438C54.7856 6.17946 54.2972 5.19622 53.8104 4.44508C55.663 5.22089 57.555 6.31424 59.3111 7.86827ZM22.8519 29.9479C22.9646 27.293 23.0537 25.1964 23.8546 22.1144C25.0128 17.6553 26.4542 12.1056 31.2437 7.86828C36.1377 3.53806 42.0859 2.73367 45.2774 2.64781C46.9261 2.69216 49.309 2.93329 51.9051 3.74852C52.3192 4.16694 53.5781 5.56928 53.984 7.55662C54.4842 10.0059 53.7391 11.5129 53.3936 12.0501C52.1145 14.0028 49.8113 16.7246 46.1001 18.6033C41.0383 21.1684 36.177 20.7421 33.73 20.259L33.314 20.1775L33.142 20.5658C32.2934 22.4876 31.3654 25.5599 31.7675 29.2769C31.9618 31.0698 32.4552 32.7997 33.206 34.4443L33.1717 34.4458C33.2069 35.2612 33.2042 36.0862 33.1613 36.9611C33.0908 38.397 33.0404 39.4342 32.7709 39.6803C32.1469 40.2524 30.4028 39.5925 28.7194 38.9533L28.1127 38.7246C25.9608 37.914 24.5394 37.3792 23.5975 36.0178C23.3391 35.644 22.6522 34.651 22.8519 29.9479ZM21.6033 74.2543C18.8938 74.2543 16.3099 74.6731 13.9523 75.4282C13.7275 74.8628 13.2974 74.1096 12.4831 73.5377C12.195 73.3352 11.5862 72.9759 10.748 72.8439C9.69828 72.6787 8.87942 72.9634 8.27962 73.1714C7.83736 73.3255 7.32255 73.6234 6.20239 74.2833C4.64621 75.1982 4.3622 75.4408 4.08372 75.7745C3.87019 76.0302 3.37127 76.6293 3.20473 77.5422C3.04096 78.435 3.28282 79.1322 3.45903 79.6415C3.73311 80.4337 4.13183 81.0928 4.5515 81.6316C2.95981 83.6384 1.95688 85.9479 1.71265 88.418H2.77881C3.01341 86.2487 3.89149 84.2162 5.27026 82.4282C5.75946 82.9011 6.20072 83.2126 6.41731 83.3488C7.36401 83.9452 8.22711 84.1753 8.66107 84.2603C9.05357 84.3363 9.49306 84.422 9.95812 84.422C10.428 84.422 10.9242 84.3342 11.4231 84.0606C12.347 83.5513 12.7602 82.6799 12.9247 82.2059C13.0836 81.7457 13.2177 80.8743 12.546 78.6298C12.4098 78.1738 12.2538 77.719 12.0847 77.2672C14.8821 76.0291 18.1336 75.3157 21.6033 75.3157C31.4986 75.3157 39.6364 81.0937 40.4284 88.418H41.4946C40.7124 80.5078 32.093 74.2543 21.6033 74.2543ZM11.6822 76.2924C11.6077 76.1193 11.5428 75.943 11.4639 75.7718L10.5006 76.2168C10.5806 76.3904 10.6467 76.5691 10.7219 76.7447C10.8607 77.0689 10.9973 77.3929 11.1188 77.722C11.2673 78.1242 11.4078 78.5283 11.5288 78.9339C11.8266 79.9269 12.1355 81.2398 11.9213 81.859C11.8073 82.1886 11.524 82.7933 10.911 83.1305C10.2573 83.4905 9.54902 83.3523 8.86076 83.2175C8.50351 83.1478 7.78414 82.9549 6.98256 82.4505C6.78946 82.3287 6.38677 82.0447 5.94633 81.6087C5.71933 81.384 5.4868 81.116 5.2614 80.805C4.95385 80.3806 4.66634 79.8842 4.4624 79.2946C4.30899 78.8523 4.13555 78.3513 4.24887 77.7336C4.36497 77.0951 4.72568 76.6625 4.89913 76.4545C5.07465 76.243 5.2861 76.0537 6.74071 75.1982C7.77103 74.5915 8.28169 74.295 8.6279 74.1741C9.17588 73.9848 9.79711 73.7699 10.5828 73.8929C11.2096 73.991 11.6601 74.2563 11.8729 74.4056C12.4537 74.814 12.775 75.3542 12.9488 75.7731C12.5168 75.9336 12.0964 76.1092 11.6822 76.2924ZM85.4484 81.6316C85.8681 81.0928 86.2668 80.4337 86.5409 79.6415C86.7171 79.1322 86.9589 78.435 86.7958 77.5428C86.6286 76.6293 86.1297 76.0302 85.9155 75.7745C85.6363 75.4394 85.3509 75.1975 83.7982 74.2833C82.678 73.624 82.1639 73.3262 81.7203 73.1714C81.1198 72.9634 80.2988 72.678 79.2526 72.8439C78.4137 72.9759 77.8049 73.3352 77.5175 73.5377C76.7026 74.1096 76.2725 74.8628 76.0476 75.4282C73.69 74.6731 71.1061 74.2543 68.3966 74.2543C57.9068 74.2543 49.2875 80.5078 48.5053 88.418H49.5715C50.3635 81.0937 58.5013 75.3157 68.3966 75.3157C71.8663 75.3157 75.1178 76.0291 77.9152 77.2672C77.7464 77.7185 77.5903 78.1733 77.4532 78.6298C76.7815 80.8743 76.9163 81.7457 77.0752 82.2059C77.2397 82.6799 77.6529 83.5513 78.5775 84.0606C79.075 84.3342 79.5705 84.422 80.0411 84.422C80.5068 84.422 80.9484 84.3363 81.3423 84.2596C81.7728 84.1753 82.6359 83.9452 83.5826 83.3488C83.7992 83.2126 84.2404 82.9011 84.7296 82.4282C86.1084 84.2161 86.9865 86.2487 87.2211 88.418H88.2872C88.043 85.9479 87.0401 83.6384 85.4484 81.6316ZM84.0536 81.6087C83.6131 82.0447 83.2104 82.3287 83.0173 82.4505C82.2157 82.9549 81.4964 83.1477 81.1364 83.2182C80.4509 83.3516 79.7412 83.4898 79.0896 83.1305C78.4759 82.7933 78.1926 82.1886 78.0786 81.859C77.8644 81.2398 78.1733 79.9269 78.4704 78.9346C78.5919 78.5283 78.7325 78.124 78.881 77.7219C79.0026 77.3925 79.1391 77.0686 79.2778 76.7446C79.353 76.5688 79.4193 76.3897 79.4993 76.2161L78.5347 75.7724C78.4561 75.9432 78.3912 76.1194 78.3171 76.2921C77.9032 76.1091 77.4829 75.9335 77.0511 75.7731C77.2249 75.3542 77.5463 74.814 78.1276 74.4056C78.3398 74.2563 78.7903 73.991 79.4178 73.8929C80.2028 73.7692 80.8233 73.9841 81.372 74.1741C81.7196 74.295 82.2296 74.5922 83.2599 75.1982C84.7117 76.053 84.9246 76.243 85.1008 76.4545C85.2742 76.6625 85.6349 77.0951 85.7517 77.7343C85.8643 78.3513 85.6909 78.8523 85.5375 79.2946C85.3336 79.8843 85.0461 80.3806 84.7385 80.805C84.5131 81.1161 84.2806 81.384 84.0536 81.6087Z"/>
</mask>
<path d="M84.6792 60.0572C84.1658 58.2833 82.8031 53.5719 78.1954 49.7512C76.521 48.3643 73.4059 45.782 68.7656 45.6231C68.4649 45.6135 67.128 45.5917 65.4387 45.9026C63.8729 45.2086 62.4799 44.7483 61.4042 44.458C58.5537 43.6889 55.6072 43.3703 52.644 43.5203L52.4188 43.532L52.2702 43.7013C52.2439 43.731 49.6153 46.6769 45.436 46.6769H45.3786C41.5386 46.652 39.764 43.8879 39.6908 43.7711L39.5443 43.5341L39.2658 43.5203C36.3013 43.3717 33.3562 43.6889 30.505 44.458C28.5024 44.9984 25.4212 46.0992 22.1153 48.2787C21.0892 48.9551 20.2222 49.6201 19.4335 50.2932C14.1607 51.4175 10.4049 56.3169 10.8668 61.8276C11.1087 64.723 12.4638 67.3502 14.6826 69.2264C16.6638 70.9014 19.1218 71.7983 21.6869 71.7977C21.9944 71.7977 22.3032 71.7852 22.6128 71.759C28.5895 71.2587 33.0452 65.9896 32.5442 60.0129C32.3024 57.1182 30.9473 54.4903 28.7284 52.6141C26.6728 50.876 24.1 49.986 21.4339 50.0586C21.8323 49.7611 22.2462 49.4636 22.6999 49.1645C25.8869 47.0631 28.8535 46.0024 30.7814 45.4835C33.4412 44.7662 36.1901 44.4587 38.9528 44.5685C39.525 45.3459 41.5773 47.7141 45.3717 47.7383H45.4374C49.5483 47.7383 52.2405 45.261 52.9108 44.5706C55.6935 44.4531 58.4535 44.762 61.1277 45.4835C61.8533 45.6788 62.7262 45.9512 63.7023 46.3265C61.8754 46.8853 59.9196 47.8778 58.4908 49.6483C55.4233 53.4482 53.4968 57.3933 52.7636 61.3736C52.2626 64.0879 51.6393 67.4663 53.6495 69.603C54.9182 70.9525 56.7446 71.2635 58.0776 71.4902C58.741 71.6028 59.4154 71.6595 60.094 71.6595C61.552 71.6588 63.0295 71.4003 64.4523 70.891C64.4816 70.8931 64.5112 70.8934 64.5405 70.8954C65.8741 71.4804 67.2928 71.7949 68.7359 71.7949C69.022 71.7949 69.3088 71.7831 69.5956 71.759C70.8109 71.6575 71.9375 71.3471 72.9658 70.8811C73.3272 70.8561 73.6912 70.8393 74.0499 70.8081C75.8597 71.3284 77.7185 71.5689 79.5864 71.524C81.7811 71.4708 83.1058 71.439 84.1762 70.5863C87.0591 68.2907 85.268 62.0943 84.6792 60.0572ZM29.2011 67.2576C27.5081 69.2595 25.1371 70.4827 22.5244 70.7017C19.9068 70.9215 17.3694 70.1074 15.3681 68.4158C13.3656 66.7228 12.1424 64.3519 11.9241 61.7391C11.8928 61.3649 11.8885 60.9931 11.899 60.6232C12.2638 60.7477 12.6911 60.8734 13.2377 60.9693C13.6993 61.0495 14.3876 61.1345 15.2375 61.1345C16.1974 61.1345 17.3631 61.026 18.6415 60.6805C19.4583 60.46 20.8252 60.091 22.3033 59.0269C22.8664 58.6212 23.3875 58.1569 23.8567 57.642C24.6527 58.3759 25.5573 58.9626 26.5524 59.3889C28.5045 60.2248 30.6678 60.1835 31.488 60.1298C31.6981 62.7325 30.8879 65.263 29.2011 67.2576ZM20.8867 51.1388C21.1665 51.1153 21.445 51.1043 21.7221 51.1043C24.037 51.1043 26.2552 51.9135 28.0429 53.4247C29.7794 54.8928 30.9271 56.8713 31.3445 59.0745C30.5927 59.1157 28.659 59.1363 26.9704 58.4132C25.9291 57.9668 24.9989 57.3228 24.2056 56.4984L23.7896 56.0658L23.4117 56.5323C22.9086 57.1528 22.3267 57.7022 21.6827 58.1658C20.3615 59.1167 19.1114 59.4546 18.3651 59.6564C16.1518 60.2541 14.3178 60.0807 13.4201 59.9231C12.8192 59.8181 12.3778 59.6733 11.9946 59.5328C12.2499 57.7218 13.0001 56.0136 14.21 54.5829C15.1433 53.4793 16.2876 52.6226 17.5599 52.0301C18.312 51.6799 19.1058 51.4161 19.9357 51.2654C20.2485 51.2086 20.5657 51.1657 20.8867 51.1388ZM72.6923 69.8355C71.7253 70.2948 70.662 70.6052 69.5071 70.7017C67.8847 70.8377 66.2643 70.5363 64.7694 69.842C63.8946 69.4357 63.0624 68.8961 62.299 68.2271C60.2847 66.4616 59.0167 64.043 58.9075 61.7578C58.8432 60.4158 59.1784 59.0559 59.9033 57.7111C61.4131 57.7201 62.921 57.6642 64.4239 57.5474L64.5856 57.5342C67.2495 57.3269 69.353 57.1632 71.7972 56.3125C73.2089 55.8212 74.5785 55.1896 75.8749 54.4329C77.0158 55.6788 78.2859 57.5999 78.469 60.0959C78.7396 63.791 76.501 68.0266 72.6923 69.8355ZM83.5149 69.7557C82.7236 70.3866 81.6 70.4136 79.5601 70.4626C77.9309 70.5023 76.3019 70.2974 74.7108 69.8769C77.9563 67.5706 79.7873 63.5674 79.5276 60.0185C79.3058 56.9904 77.675 54.7418 76.3462 53.3881L76.0511 53.0875L75.6918 53.3065C74.3512 54.1226 72.9235 54.7971 71.4489 55.3105C69.134 56.1156 67.1915 56.2669 64.5034 56.4763L64.341 56.4887C62.7641 56.6124 61.1699 56.6642 59.5999 56.647L59.2896 56.6435L59.1341 56.9116C58.202 58.5231 57.7687 60.1705 57.8475 61.8089C57.9705 64.3761 59.3726 67.0738 61.599 69.0253C62.0948 69.4598 62.6179 69.8431 63.1606 70.1786C61.5316 70.6199 59.8552 70.7169 58.2559 70.4439C57.0044 70.2311 55.4475 69.9665 54.4221 68.876C52.7802 67.1305 53.3261 64.1743 53.807 61.5657C54.5077 57.7609 56.3618 53.9755 59.3173 50.3144C60.933 48.3128 63.3256 47.4117 65.3034 47.006C65.9933 46.8645 66.6309 46.7814 67.1681 46.7362C67.6966 46.6917 68.1315 46.6796 68.4146 46.6796C68.5604 46.6796 68.6675 46.6817 68.729 46.6845C73.0072 46.8303 75.8307 49.1708 77.5223 50.5722C81.8744 54.1807 83.1714 58.6641 83.66 60.3529C85.1077 65.3629 85.0593 68.5264 83.5149 69.7557ZM27.7389 39.7176L28.3428 39.9463C29.6979 40.4604 31.0046 40.9559 32.0564 40.9559C32.6154 40.9559 33.1033 40.8156 33.4875 40.4639C34.0797 39.9228 34.1267 38.9498 34.2241 36.9521C34.2432 36.5703 34.2514 36.1856 34.2542 35.8009C36.261 37.2557 38.4634 38.2912 40.8158 38.8821C42.6366 39.3396 44.2212 39.4439 45.2867 39.4439C45.758 39.4439 46.1277 39.4232 46.3716 39.4045C47.6106 39.305 50.0472 38.9512 52.4506 37.6901C53.8262 36.9683 55.0793 35.9954 56.1783 34.8487C56.2373 35.6871 56.2898 36.4063 56.3314 36.9652C56.5186 39.4743 56.5573 39.9967 57.0666 40.4639C57.4515 40.8156 57.9387 40.9559 58.4984 40.9559C59.5502 40.9559 60.8569 40.4604 62.212 39.9463L62.8159 39.7176C64.9857 38.9008 66.6995 38.2554 67.8293 36.6218C68.398 35.8015 68.9529 34.3614 68.7629 29.9023C68.6523 27.2923 68.5563 25.0388 67.7277 21.8491C66.5343 17.2503 65.0486 11.5272 60.0145 7.07359C57.6015 4.93815 54.9514 3.62495 52.4706 2.81606L52.4692 2.81481L52.4687 2.81542C49.6986 1.91242 47.1476 1.64193 45.3781 1.58911L45.3779 1.58203C45.3462 1.58272 45.3097 1.58475 45.2774 1.58557C45.2451 1.58475 45.2086 1.58273 45.1768 1.58203L45.1767 1.58911C41.8221 1.68922 35.649 2.55309 30.5403 7.0736C25.5082 11.5259 24.0218 17.2489 22.827 21.8491C21.9985 25.0388 21.9025 27.2923 21.7919 29.9023C21.6019 34.3614 22.1568 35.8015 22.7248 36.6218C23.8553 38.2554 25.569 38.9008 27.7389 39.7176ZM51.9572 36.7503C49.7217 37.9237 47.4448 38.254 46.288 38.3459C45.5445 38.4046 43.5488 38.4737 41.0742 37.8525C38.695 37.2548 36.4788 36.1689 34.4738 34.6344C33.5933 32.9086 33.03 31.0725 32.8234 29.1622C32.4717 25.9171 33.2035 23.1945 33.9491 21.3792C36.6427 21.8484 41.513 22.1172 46.5796 19.55C50.4998 17.5654 52.9315 14.6921 54.2811 12.6315L53.8374 12.3406L54.2832 12.6281C54.3561 12.5151 54.4343 12.378 54.5134 12.227C56.3889 13.7878 57.8553 15.779 58.7693 18.0353C59.528 19.9066 59.7395 21.5471 59.7982 22.3577C60.2121 28.0959 56.9146 34.1486 51.9572 36.7503ZM59.3111 7.86827C64.1026 12.1077 65.5434 17.6566 66.7009 22.1158C67.5011 25.1964 67.5902 27.293 67.7029 29.9479C67.9026 34.651 67.2157 35.644 66.9566 36.0178C66.0154 37.3792 64.5939 37.914 62.4421 38.7246L61.8354 38.9533C60.1513 39.5925 58.4079 40.2517 57.7839 39.681C57.6028 39.5151 57.5476 39.0031 57.39 36.8864C57.332 36.107 57.2532 35.0269 57.164 33.7264L57.1525 33.7272C59.6985 30.5364 61.1495 26.338 60.8569 22.2817C60.794 21.4082 60.566 19.6433 59.7533 17.6373C58.7304 15.1127 57.0625 12.9001 54.9258 11.198C55.2082 10.2591 55.3581 8.98174 55.0232 7.3438C54.7856 6.17946 54.2972 5.19622 53.8104 4.44508C55.663 5.22089 57.555 6.31424 59.3111 7.86827ZM22.8519 29.9479C22.9646 27.293 23.0537 25.1964 23.8546 22.1144C25.0128 17.6553 26.4542 12.1056 31.2437 7.86828C36.1377 3.53806 42.0859 2.73367 45.2774 2.64781C46.9261 2.69216 49.309 2.93329 51.9051 3.74852C52.3192 4.16694 53.5781 5.56928 53.984 7.55662C54.4842 10.0059 53.7391 11.5129 53.3936 12.0501C52.1145 14.0028 49.8113 16.7246 46.1001 18.6033C41.0383 21.1684 36.177 20.7421 33.73 20.259L33.314 20.1775L33.142 20.5658C32.2934 22.4876 31.3654 25.5599 31.7675 29.2769C31.9618 31.0698 32.4552 32.7997 33.206 34.4443L33.1717 34.4458C33.2069 35.2612 33.2042 36.0862 33.1613 36.9611C33.0908 38.397 33.0404 39.4342 32.7709 39.6803C32.1469 40.2524 30.4028 39.5925 28.7194 38.9533L28.1127 38.7246C25.9608 37.914 24.5394 37.3792 23.5975 36.0178C23.3391 35.644 22.6522 34.651 22.8519 29.9479ZM21.6033 74.2543C18.8938 74.2543 16.3099 74.6731 13.9523 75.4282C13.7275 74.8628 13.2974 74.1096 12.4831 73.5377C12.195 73.3352 11.5862 72.9759 10.748 72.8439C9.69828 72.6787 8.87942 72.9634 8.27962 73.1714C7.83736 73.3255 7.32255 73.6234 6.20239 74.2833C4.64621 75.1982 4.3622 75.4408 4.08372 75.7745C3.87019 76.0302 3.37127 76.6293 3.20473 77.5422C3.04096 78.435 3.28282 79.1322 3.45903 79.6415C3.73311 80.4337 4.13183 81.0928 4.5515 81.6316C2.95981 83.6384 1.95688 85.9479 1.71265 88.418H2.77881C3.01341 86.2487 3.89149 84.2162 5.27026 82.4282C5.75946 82.9011 6.20072 83.2126 6.41731 83.3488C7.36401 83.9452 8.22711 84.1753 8.66107 84.2603C9.05357 84.3363 9.49306 84.422 9.95812 84.422C10.428 84.422 10.9242 84.3342 11.4231 84.0606C12.347 83.5513 12.7602 82.6799 12.9247 82.2059C13.0836 81.7457 13.2177 80.8743 12.546 78.6298C12.4098 78.1738 12.2538 77.719 12.0847 77.2672C14.8821 76.0291 18.1336 75.3157 21.6033 75.3157C31.4986 75.3157 39.6364 81.0937 40.4284 88.418H41.4946C40.7124 80.5078 32.093 74.2543 21.6033 74.2543ZM11.6822 76.2924C11.6077 76.1193 11.5428 75.943 11.4639 75.7718L10.5006 76.2168C10.5806 76.3904 10.6467 76.5691 10.7219 76.7447C10.8607 77.0689 10.9973 77.3929 11.1188 77.722C11.2673 78.1242 11.4078 78.5283 11.5288 78.9339C11.8266 79.9269 12.1355 81.2398 11.9213 81.859C11.8073 82.1886 11.524 82.7933 10.911 83.1305C10.2573 83.4905 9.54902 83.3523 8.86076 83.2175C8.50351 83.1478 7.78414 82.9549 6.98256 82.4505C6.78946 82.3287 6.38677 82.0447 5.94633 81.6087C5.71933 81.384 5.4868 81.116 5.2614 80.805C4.95385 80.3806 4.66634 79.8842 4.4624 79.2946C4.30899 78.8523 4.13555 78.3513 4.24887 77.7336C4.36497 77.0951 4.72568 76.6625 4.89913 76.4545C5.07465 76.243 5.2861 76.0537 6.74071 75.1982C7.77103 74.5915 8.28169 74.295 8.6279 74.1741C9.17588 73.9848 9.79711 73.7699 10.5828 73.8929C11.2096 73.991 11.6601 74.2563 11.8729 74.4056C12.4537 74.814 12.775 75.3542 12.9488 75.7731C12.5168 75.9336 12.0964 76.1092 11.6822 76.2924ZM85.4484 81.6316C85.8681 81.0928 86.2668 80.4337 86.5409 79.6415C86.7171 79.1322 86.9589 78.435 86.7958 77.5428C86.6286 76.6293 86.1297 76.0302 85.9155 75.7745C85.6363 75.4394 85.3509 75.1975 83.7982 74.2833C82.678 73.624 82.1639 73.3262 81.7203 73.1714C81.1198 72.9634 80.2988 72.678 79.2526 72.8439C78.4137 72.9759 77.8049 73.3352 77.5175 73.5377C76.7026 74.1096 76.2725 74.8628 76.0476 75.4282C73.69 74.6731 71.1061 74.2543 68.3966 74.2543C57.9068 74.2543 49.2875 80.5078 48.5053 88.418H49.5715C50.3635 81.0937 58.5013 75.3157 68.3966 75.3157C71.8663 75.3157 75.1178 76.0291 77.9152 77.2672C77.7464 77.7185 77.5903 78.1733 77.4532 78.6298C76.7815 80.8743 76.9163 81.7457 77.0752 82.2059C77.2397 82.6799 77.6529 83.5513 78.5775 84.0606C79.075 84.3342 79.5705 84.422 80.0411 84.422C80.5068 84.422 80.9484 84.3363 81.3423 84.2596C81.7728 84.1753 82.6359 83.9452 83.5826 83.3488C83.7992 83.2126 84.2404 82.9011 84.7296 82.4282C86.1084 84.2161 86.9865 86.2487 87.2211 88.418H88.2872C88.043 85.9479 87.0401 83.6384 85.4484 81.6316ZM84.0536 81.6087C83.6131 82.0447 83.2104 82.3287 83.0173 82.4505C82.2157 82.9549 81.4964 83.1477 81.1364 83.2182C80.4509 83.3516 79.7412 83.4898 79.0896 83.1305C78.4759 82.7933 78.1926 82.1886 78.0786 81.859C77.8644 81.2398 78.1733 79.9269 78.4704 78.9346C78.5919 78.5283 78.7325 78.124 78.881 77.7219C79.0026 77.3925 79.1391 77.0686 79.2778 76.7446C79.353 76.5688 79.4193 76.3897 79.4993 76.2161L78.5347 75.7724C78.4561 75.9432 78.3912 76.1194 78.3171 76.2921C77.9032 76.1091 77.4829 75.9335 77.0511 75.7731C77.2249 75.3542 77.5463 74.814 78.1276 74.4056C78.3398 74.2563 78.7903 73.991 79.4178 73.8929C80.2028 73.7692 80.8233 73.9841 81.372 74.1741C81.7196 74.295 82.2296 74.5922 83.2599 75.1982C84.7117 76.053 84.9246 76.243 85.1008 76.4545C85.2742 76.6625 85.6349 77.0951 85.7517 77.7343C85.8643 78.3513 85.6909 78.8523 85.5375 79.2946C85.3336 79.8843 85.0461 80.3806 84.7385 80.805C84.5131 81.1161 84.2806 81.384 84.0536 81.6087Z" fill="#987F61"/>
<path d="M84.6792 60.0572C84.1658 58.2833 82.8031 53.5719 78.1954 49.7512C76.521 48.3643 73.4059 45.782 68.7656 45.6231C68.4649 45.6135 67.128 45.5917 65.4387 45.9026C63.8729 45.2086 62.4799 44.7483 61.4042 44.458C58.5537 43.6889 55.6072 43.3703 52.644 43.5203L52.4188 43.532L52.2702 43.7013C52.2439 43.731 49.6153 46.6769 45.436 46.6769H45.3786C41.5386 46.652 39.764 43.8879 39.6908 43.7711L39.5443 43.5341L39.2658 43.5203C36.3013 43.3717 33.3562 43.6889 30.505 44.458C28.5024 44.9984 25.4212 46.0992 22.1153 48.2787C21.0892 48.9551 20.2222 49.6201 19.4335 50.2932C14.1607 51.4175 10.4049 56.3169 10.8668 61.8276C11.1087 64.723 12.4638 67.3502 14.6826 69.2264C16.6638 70.9014 19.1218 71.7983 21.6869 71.7977C21.9944 71.7977 22.3032 71.7852 22.6128 71.759C28.5895 71.2587 33.0452 65.9896 32.5442 60.0129C32.3024 57.1182 30.9473 54.4903 28.7284 52.6141C26.6728 50.876 24.1 49.986 21.4339 50.0586C21.8323 49.7611 22.2462 49.4636 22.6999 49.1645C25.8869 47.0631 28.8535 46.0024 30.7814 45.4835C33.4412 44.7662 36.1901 44.4587 38.9528 44.5685C39.525 45.3459 41.5773 47.7141 45.3717 47.7383H45.4374C49.5483 47.7383 52.2405 45.261 52.9108 44.5706C55.6935 44.4531 58.4535 44.762 61.1277 45.4835C61.8533 45.6788 62.7262 45.9512 63.7023 46.3265C61.8754 46.8853 59.9196 47.8778 58.4908 49.6483C55.4233 53.4482 53.4968 57.3933 52.7636 61.3736C52.2626 64.0879 51.6393 67.4663 53.6495 69.603C54.9182 70.9525 56.7446 71.2635 58.0776 71.4902C58.741 71.6028 59.4154 71.6595 60.094 71.6595C61.552 71.6588 63.0295 71.4003 64.4523 70.891C64.4816 70.8931 64.5112 70.8934 64.5405 70.8954C65.8741 71.4804 67.2928 71.7949 68.7359 71.7949C69.022 71.7949 69.3088 71.7831 69.5956 71.759C70.8109 71.6575 71.9375 71.3471 72.9658 70.8811C73.3272 70.8561 73.6912 70.8393 74.0499 70.8081C75.8597 71.3284 77.7185 71.5689 79.5864 71.524C81.7811 71.4708 83.1058 71.439 84.1762 70.5863C87.0591 68.2907 85.268 62.0943 84.6792 60.0572ZM29.2011 67.2576C27.5081 69.2595 25.1371 70.4827 22.5244 70.7017C19.9068 70.9215 17.3694 70.1074 15.3681 68.4158C13.3656 66.7228 12.1424 64.3519 11.9241 61.7391C11.8928 61.3649 11.8885 60.9931 11.899 60.6232C12.2638 60.7477 12.6911 60.8734 13.2377 60.9693C13.6993 61.0495 14.3876 61.1345 15.2375 61.1345C16.1974 61.1345 17.3631 61.026 18.6415 60.6805C19.4583 60.46 20.8252 60.091 22.3033 59.0269C22.8664 58.6212 23.3875 58.1569 23.8567 57.642C24.6527 58.3759 25.5573 58.9626 26.5524 59.3889C28.5045 60.2248 30.6678 60.1835 31.488 60.1298C31.6981 62.7325 30.8879 65.263 29.2011 67.2576ZM20.8867 51.1388C21.1665 51.1153 21.445 51.1043 21.7221 51.1043C24.037 51.1043 26.2552 51.9135 28.0429 53.4247C29.7794 54.8928 30.9271 56.8713 31.3445 59.0745C30.5927 59.1157 28.659 59.1363 26.9704 58.4132C25.9291 57.9668 24.9989 57.3228 24.2056 56.4984L23.7896 56.0658L23.4117 56.5323C22.9086 57.1528 22.3267 57.7022 21.6827 58.1658C20.3615 59.1167 19.1114 59.4546 18.3651 59.6564C16.1518 60.2541 14.3178 60.0807 13.4201 59.9231C12.8192 59.8181 12.3778 59.6733 11.9946 59.5328C12.2499 57.7218 13.0001 56.0136 14.21 54.5829C15.1433 53.4793 16.2876 52.6226 17.5599 52.0301C18.312 51.6799 19.1058 51.4161 19.9357 51.2654C20.2485 51.2086 20.5657 51.1657 20.8867 51.1388ZM72.6923 69.8355C71.7253 70.2948 70.662 70.6052 69.5071 70.7017C67.8847 70.8377 66.2643 70.5363 64.7694 69.842C63.8946 69.4357 63.0624 68.8961 62.299 68.2271C60.2847 66.4616 59.0167 64.043 58.9075 61.7578C58.8432 60.4158 59.1784 59.0559 59.9033 57.7111C61.4131 57.7201 62.921 57.6642 64.4239 57.5474L64.5856 57.5342C67.2495 57.3269 69.353 57.1632 71.7972 56.3125C73.2089 55.8212 74.5785 55.1896 75.8749 54.4329C77.0158 55.6788 78.2859 57.5999 78.469 60.0959C78.7396 63.791 76.501 68.0266 72.6923 69.8355ZM83.5149 69.7557C82.7236 70.3866 81.6 70.4136 79.5601 70.4626C77.9309 70.5023 76.3019 70.2974 74.7108 69.8769C77.9563 67.5706 79.7873 63.5674 79.5276 60.0185C79.3058 56.9904 77.675 54.7418 76.3462 53.3881L76.0511 53.0875L75.6918 53.3065C74.3512 54.1226 72.9235 54.7971 71.4489 55.3105C69.134 56.1156 67.1915 56.2669 64.5034 56.4763L64.341 56.4887C62.7641 56.6124 61.1699 56.6642 59.5999 56.647L59.2896 56.6435L59.1341 56.9116C58.202 58.5231 57.7687 60.1705 57.8475 61.8089C57.9705 64.3761 59.3726 67.0738 61.599 69.0253C62.0948 69.4598 62.6179 69.8431 63.1606 70.1786C61.5316 70.6199 59.8552 70.7169 58.2559 70.4439C57.0044 70.2311 55.4475 69.9665 54.4221 68.876C52.7802 67.1305 53.3261 64.1743 53.807 61.5657C54.5077 57.7609 56.3618 53.9755 59.3173 50.3144C60.933 48.3128 63.3256 47.4117 65.3034 47.006C65.9933 46.8645 66.6309 46.7814 67.1681 46.7362C67.6966 46.6917 68.1315 46.6796 68.4146 46.6796C68.5604 46.6796 68.6675 46.6817 68.729 46.6845C73.0072 46.8303 75.8307 49.1708 77.5223 50.5722C81.8744 54.1807 83.1714 58.6641 83.66 60.3529C85.1077 65.3629 85.0593 68.5264 83.5149 69.7557ZM27.7389 39.7176L28.3428 39.9463C29.6979 40.4604 31.0046 40.9559 32.0564 40.9559C32.6154 40.9559 33.1033 40.8156 33.4875 40.4639C34.0797 39.9228 34.1267 38.9498 34.2241 36.9521C34.2432 36.5703 34.2514 36.1856 34.2542 35.8009C36.261 37.2557 38.4634 38.2912 40.8158 38.8821C42.6366 39.3396 44.2212 39.4439 45.2867 39.4439C45.758 39.4439 46.1277 39.4232 46.3716 39.4045C47.6106 39.305 50.0472 38.9512 52.4506 37.6901C53.8262 36.9683 55.0793 35.9954 56.1783 34.8487C56.2373 35.6871 56.2898 36.4063 56.3314 36.9652C56.5186 39.4743 56.5573 39.9967 57.0666 40.4639C57.4515 40.8156 57.9387 40.9559 58.4984 40.9559C59.5502 40.9559 60.8569 40.4604 62.212 39.9463L62.8159 39.7176C64.9857 38.9008 66.6995 38.2554 67.8293 36.6218C68.398 35.8015 68.9529 34.3614 68.7629 29.9023C68.6523 27.2923 68.5563 25.0388 67.7277 21.8491C66.5343 17.2503 65.0486 11.5272 60.0145 7.07359C57.6015 4.93815 54.9514 3.62495 52.4706 2.81606L52.4692 2.81481L52.4687 2.81542C49.6986 1.91242 47.1476 1.64193 45.3781 1.58911L45.3779 1.58203C45.3462 1.58272 45.3097 1.58475 45.2774 1.58557C45.2451 1.58475 45.2086 1.58273 45.1768 1.58203L45.1767 1.58911C41.8221 1.68922 35.649 2.55309 30.5403 7.0736C25.5082 11.5259 24.0218 17.2489 22.827 21.8491C21.9985 25.0388 21.9025 27.2923 21.7919 29.9023C21.6019 34.3614 22.1568 35.8015 22.7248 36.6218C23.8553 38.2554 25.569 38.9008 27.7389 39.7176ZM51.9572 36.7503C49.7217 37.9237 47.4448 38.254 46.288 38.3459C45.5445 38.4046 43.5488 38.4737 41.0742 37.8525C38.695 37.2548 36.4788 36.1689 34.4738 34.6344C33.5933 32.9086 33.03 31.0725 32.8234 29.1622C32.4717 25.9171 33.2035 23.1945 33.9491 21.3792C36.6427 21.8484 41.513 22.1172 46.5796 19.55C50.4998 17.5654 52.9315 14.6921 54.2811 12.6315L53.8374 12.3406L54.2832 12.6281C54.3561 12.5151 54.4343 12.378 54.5134 12.227C56.3889 13.7878 57.8553 15.779 58.7693 18.0353C59.528 19.9066 59.7395 21.5471 59.7982 22.3577C60.2121 28.0959 56.9146 34.1486 51.9572 36.7503ZM59.3111 7.86827C64.1026 12.1077 65.5434 17.6566 66.7009 22.1158C67.5011 25.1964 67.5902 27.293 67.7029 29.9479C67.9026 34.651 67.2157 35.644 66.9566 36.0178C66.0154 37.3792 64.5939 37.914 62.4421 38.7246L61.8354 38.9533C60.1513 39.5925 58.4079 40.2517 57.7839 39.681C57.6028 39.5151 57.5476 39.0031 57.39 36.8864C57.332 36.107 57.2532 35.0269 57.164 33.7264L57.1525 33.7272C59.6985 30.5364 61.1495 26.338 60.8569 22.2817C60.794 21.4082 60.566 19.6433 59.7533 17.6373C58.7304 15.1127 57.0625 12.9001 54.9258 11.198C55.2082 10.2591 55.3581 8.98174 55.0232 7.3438C54.7856 6.17946 54.2972 5.19622 53.8104 4.44508C55.663 5.22089 57.555 6.31424 59.3111 7.86827ZM22.8519 29.9479C22.9646 27.293 23.0537 25.1964 23.8546 22.1144C25.0128 17.6553 26.4542 12.1056 31.2437 7.86828C36.1377 3.53806 42.0859 2.73367 45.2774 2.64781C46.9261 2.69216 49.309 2.93329 51.9051 3.74852C52.3192 4.16694 53.5781 5.56928 53.984 7.55662C54.4842 10.0059 53.7391 11.5129 53.3936 12.0501C52.1145 14.0028 49.8113 16.7246 46.1001 18.6033C41.0383 21.1684 36.177 20.7421 33.73 20.259L33.314 20.1775L33.142 20.5658C32.2934 22.4876 31.3654 25.5599 31.7675 29.2769C31.9618 31.0698 32.4552 32.7997 33.206 34.4443L33.1717 34.4458C33.2069 35.2612 33.2042 36.0862 33.1613 36.9611C33.0908 38.397 33.0404 39.4342 32.7709 39.6803C32.1469 40.2524 30.4028 39.5925 28.7194 38.9533L28.1127 38.7246C25.9608 37.914 24.5394 37.3792 23.5975 36.0178C23.3391 35.644 22.6522 34.651 22.8519 29.9479ZM21.6033 74.2543C18.8938 74.2543 16.3099 74.6731 13.9523 75.4282C13.7275 74.8628 13.2974 74.1096 12.4831 73.5377C12.195 73.3352 11.5862 72.9759 10.748 72.8439C9.69828 72.6787 8.87942 72.9634 8.27962 73.1714C7.83736 73.3255 7.32255 73.6234 6.20239 74.2833C4.64621 75.1982 4.3622 75.4408 4.08372 75.7745C3.87019 76.0302 3.37127 76.6293 3.20473 77.5422C3.04096 78.435 3.28282 79.1322 3.45903 79.6415C3.73311 80.4337 4.13183 81.0928 4.5515 81.6316C2.95981 83.6384 1.95688 85.9479 1.71265 88.418H2.77881C3.01341 86.2487 3.89149 84.2162 5.27026 82.4282C5.75946 82.9011 6.20072 83.2126 6.41731 83.3488C7.36401 83.9452 8.22711 84.1753 8.66107 84.2603C9.05357 84.3363 9.49306 84.422 9.95812 84.422C10.428 84.422 10.9242 84.3342 11.4231 84.0606C12.347 83.5513 12.7602 82.6799 12.9247 82.2059C13.0836 81.7457 13.2177 80.8743 12.546 78.6298C12.4098 78.1738 12.2538 77.719 12.0847 77.2672C14.8821 76.0291 18.1336 75.3157 21.6033 75.3157C31.4986 75.3157 39.6364 81.0937 40.4284 88.418H41.4946C40.7124 80.5078 32.093 74.2543 21.6033 74.2543ZM11.6822 76.2924C11.6077 76.1193 11.5428 75.943 11.4639 75.7718L10.5006 76.2168C10.5806 76.3904 10.6467 76.5691 10.7219 76.7447C10.8607 77.0689 10.9973 77.3929 11.1188 77.722C11.2673 78.1242 11.4078 78.5283 11.5288 78.9339C11.8266 79.9269 12.1355 81.2398 11.9213 81.859C11.8073 82.1886 11.524 82.7933 10.911 83.1305C10.2573 83.4905 9.54902 83.3523 8.86076 83.2175C8.50351 83.1478 7.78414 82.9549 6.98256 82.4505C6.78946 82.3287 6.38677 82.0447 5.94633 81.6087C5.71933 81.384 5.4868 81.116 5.2614 80.805C4.95385 80.3806 4.66634 79.8842 4.4624 79.2946C4.30899 78.8523 4.13555 78.3513 4.24887 77.7336C4.36497 77.0951 4.72568 76.6625 4.89913 76.4545C5.07465 76.243 5.2861 76.0537 6.74071 75.1982C7.77103 74.5915 8.28169 74.295 8.6279 74.1741C9.17588 73.9848 9.79711 73.7699 10.5828 73.8929C11.2096 73.991 11.6601 74.2563 11.8729 74.4056C12.4537 74.814 12.775 75.3542 12.9488 75.7731C12.5168 75.9336 12.0964 76.1092 11.6822 76.2924ZM85.4484 81.6316C85.8681 81.0928 86.2668 80.4337 86.5409 79.6415C86.7171 79.1322 86.9589 78.435 86.7958 77.5428C86.6286 76.6293 86.1297 76.0302 85.9155 75.7745C85.6363 75.4394 85.3509 75.1975 83.7982 74.2833C82.678 73.624 82.1639 73.3262 81.7203 73.1714C81.1198 72.9634 80.2988 72.678 79.2526 72.8439C78.4137 72.9759 77.8049 73.3352 77.5175 73.5377C76.7026 74.1096 76.2725 74.8628 76.0476 75.4282C73.69 74.6731 71.1061 74.2543 68.3966 74.2543C57.9068 74.2543 49.2875 80.5078 48.5053 88.418H49.5715C50.3635 81.0937 58.5013 75.3157 68.3966 75.3157C71.8663 75.3157 75.1178 76.0291 77.9152 77.2672C77.7464 77.7185 77.5903 78.1733 77.4532 78.6298C76.7815 80.8743 76.9163 81.7457 77.0752 82.2059C77.2397 82.6799 77.6529 83.5513 78.5775 84.0606C79.075 84.3342 79.5705 84.422 80.0411 84.422C80.5068 84.422 80.9484 84.3363 81.3423 84.2596C81.7728 84.1753 82.6359 83.9452 83.5826 83.3488C83.7992 83.2126 84.2404 82.9011 84.7296 82.4282C86.1084 84.2161 86.9865 86.2487 87.2211 88.418H88.2872C88.043 85.9479 87.0401 83.6384 85.4484 81.6316ZM84.0536 81.6087C83.6131 82.0447 83.2104 82.3287 83.0173 82.4505C82.2157 82.9549 81.4964 83.1477 81.1364 83.2182C80.4509 83.3516 79.7412 83.4898 79.0896 83.1305C78.4759 82.7933 78.1926 82.1886 78.0786 81.859C77.8644 81.2398 78.1733 79.9269 78.4704 78.9346C78.5919 78.5283 78.7325 78.124 78.881 77.7219C79.0026 77.3925 79.1391 77.0686 79.2778 76.7446C79.353 76.5688 79.4193 76.3897 79.4993 76.2161L78.5347 75.7724C78.4561 75.9432 78.3912 76.1194 78.3171 76.2921C77.9032 76.1091 77.4829 75.9335 77.0511 75.7731C77.2249 75.3542 77.5463 74.814 78.1276 74.4056C78.3398 74.2563 78.7903 73.991 79.4178 73.8929C80.2028 73.7692 80.8233 73.9841 81.372 74.1741C81.7196 74.295 82.2296 74.5922 83.2599 75.1982C84.7117 76.053 84.9246 76.243 85.1008 76.4545C85.2742 76.6625 85.6349 77.0951 85.7517 77.7343C85.8643 78.3513 85.6909 78.8523 85.5375 79.2946C85.3336 79.8843 85.0461 80.3806 84.7385 80.805C84.5131 81.1161 84.2806 81.384 84.0536 81.6087Z" stroke="#987F61" stroke-width="2.6" mask="url(#path-1-outside-1_21_775)"/>
</g>
<defs>
<clipPath id="clip0_21_775">
<rect width="90" height="90" fill="white"/>
</clipPath>
</defs>
</svg>
