<svg width="90" height="90" viewBox="0 0 90 90" fill="none" xmlns="http://www.w3.org/2000/svg">
<g clip-path="url(#clip0_21_794)">
<path d="M75.7969 15H47.6719V10.35C47.6719 8.7 46.4063 1.5 44.8594 1.5C43.3125 1.5 42.0469 8.7 42.0469 10.35V15H13.9219C11.5312 15 9.70312 16.95 9.70312 19.35C9.70312 21.75 11.5312 23.7 13.9219 23.7C16.3125 23.7 18.1406 21.75 18.1406 19.35C18.1406 19.05 30.0938 25.05 41.9062 25.35V73.95C35.2969 74.25 30.2344 76.8 30.2344 78.75C30.2344 79.05 30.375 79.5 30.6562 79.8H25.3125C24.1875 79.8 23.3438 80.7 23.3438 81.75V86.55C23.3438 87.6 24.1875 88.5 25.3125 88.5H31.0781C32.2031 88.5 33.0469 87.6 33.0469 86.55V85.5H56.1094V86.55C56.1094 87.6 56.9531 88.5 58.0781 88.5H63.8438C64.9688 88.5 65.8125 87.6 65.8125 86.55V81.75C65.8125 80.7 64.9688 79.8 63.8438 79.8H58.5C58.7812 79.5 58.9219 79.2 58.9219 78.75C58.9219 76.8 53.8594 74.25 47.25 73.95V25.35C59.2031 25.2 71.0156 19.2 71.0156 19.35C71.0156 21.75 72.8437 23.7 75.2344 23.7C77.625 23.7 79.4531 21.75 79.4531 19.35C80.0156 16.95 78.1875 15 75.7969 15Z" stroke="#987F61" stroke-width="3" stroke-linejoin="round"/>
<path d="M1.54688 63.0001L14.0625 23.8501L26.7187 64.3501" stroke="#987F61" stroke-width="3" stroke-linejoin="round"/>
<path d="M63.2812 64.5001L75.7969 23.8501L88.5938 65.8501" stroke="#987F61" stroke-width="3" stroke-linejoin="round"/>
<path d="M26.7188 63.5999C26.7188 66.4499 21.0938 68.9999 14.0625 68.9999C7.03125 68.9999 1.40625 66.4499 1.40625 63.5999C1.40625 60.7499 26.7188 60.7499 26.7188 63.5999Z" stroke="#987F61" stroke-width="3" stroke-linejoin="round"/>
<path d="M88.4531 65.0999C88.4531 67.9499 82.8281 70.4999 75.7969 70.4999C68.7656 70.4999 63.1406 67.9499 63.1406 65.0999C63.2813 62.2499 88.4531 62.2499 88.4531 65.0999Z" stroke="#987F61" stroke-width="3" stroke-linejoin="round"/>
</g>
<defs>
<clipPath id="clip0_21_794">
<rect width="90" height="90" fill="white"/>
</clipPath>
</defs>
</svg>
