<svg width="80" height="90" viewBox="0 0 80 90" fill="none" xmlns="http://www.w3.org/2000/svg">
<g clip-path="url(#clip0_21_779)">
<path d="M0 53.6263C0 73.682 17.939 90.0001 40 90.0001C45.2539 90.0033 50.4569 89.0647 55.3116 87.2379C60.1662 85.4111 64.5772 82.732 68.2923 79.3537C72.0073 75.9754 74.9536 71.9643 76.9625 67.5498C78.9714 63.1353 80.0036 58.4039 80 53.6263C79.9995 53.2267 79.8247 52.8436 79.514 52.5611C79.2033 52.2786 78.782 52.1196 78.3426 52.1191H1.6574C1.21799 52.1196 0.796724 52.2786 0.486013 52.5611C0.175301 52.8436 0.000516046 53.2267 0 53.6263ZM76.6481 55.1334C76.5367 57.3953 76.1728 59.6409 75.5621 61.8358H4.44184C3.82759 59.6414 3.46236 57.3956 3.35186 55.1334H76.6481ZM4.81427 63.077H75.1877C72.9448 69.9813 68.3059 76.0405 61.9639 80.3497C55.6218 84.6589 47.9169 86.9868 40 86.9858C23.3792 86.9858 9.30682 76.8825 4.81427 63.077Z" fill="#987F61"/>
<path d="M51.5317 80.3012C55.2721 78.8345 58.5971 76.6142 61.2558 73.808C61.3739 73.6831 61.5418 73.6061 61.7225 73.5938C61.9031 73.5815 62.0817 73.6349 62.219 73.7424C62.3563 73.8498 62.4411 74.0025 62.4546 74.1668C62.4681 74.331 62.4093 74.4935 62.2912 74.6183C59.4931 77.5676 55.9956 79.9011 52.0621 81.443C51.9769 81.4758 51.8854 81.4926 51.793 81.4927C51.6355 81.493 51.4828 81.4439 51.3607 81.3535C51.2385 81.2632 51.1545 81.1372 51.1228 80.9969C51.0912 80.8567 51.1138 80.7108 51.1869 80.584C51.26 80.4572 51.379 80.3573 51.5239 80.3012H51.5317Z" fill="#987F61"/>
<path d="M73.7875 19.5326C76.9951 16.4527 76.1742 11.9082 76.1372 11.7309C76.0872 11.4684 75.9616 11.2227 75.7732 11.0188C75.5848 10.8148 75.3404 10.6599 75.0647 10.5698C74.7891 10.4797 74.4921 10.4577 74.2041 10.5059C73.916 10.5541 73.6472 10.6709 73.4249 10.8443L66.1479 16.5201L68.3532 6.5764C68.412 6.31115 68.3913 6.03638 68.2931 5.78095C68.1948 5.52552 68.0228 5.29884 67.795 5.12472C67.5672 4.9506 67.2921 4.83545 66.9985 4.79137C66.7049 4.74729 66.4037 4.7759 66.1264 4.87421C65.908 4.95045 60.7389 6.82464 59.3018 11.3089C58.6428 13.355 58.869 15.5537 59.9687 17.8694C58.5486 17.6671 57.0965 17.7635 55.7238 18.1513C53.3313 18.8606 51.4984 20.4989 50.2777 23.015C49.9067 23.8028 49.5908 24.6112 49.3321 25.4353C49.3321 25.453 49.3204 25.4725 49.3145 25.4903C47.4914 31.1536 46.4423 40.6504 46.6412 45.6435C46.67 46.4646 46.9542 47.2614 47.4609 47.9414C47.9675 48.6215 48.6758 49.1571 49.5036 49.4859C50.1176 49.7338 50.7818 49.8624 51.4535 49.8636C52.5895 49.8625 53.688 49.4935 54.5519 48.8227C57.0692 46.883 60.5244 43.6222 63.5721 40.3118C65.9334 37.7443 67.8735 35.347 69.1819 33.3789C69.6689 32.66 70.1053 31.9138 70.4883 31.1447C71.7109 28.6305 71.8065 26.297 70.773 24.2101C70.336 23.3431 69.734 22.5531 68.9947 21.8766C70.9622 21.4866 72.565 20.7064 73.7875 19.5326ZM62.7473 21.8376L62.798 21.8607L62.8565 21.8873L62.9091 21.9103H62.9247L62.9618 21.9228L63.0281 21.9458L63.0632 21.9582C63.1295 21.9777 66.573 23.0327 67.7604 25.4601C68.3922 26.7492 68.2947 28.2102 67.4602 29.9266C67.2182 30.4121 66.9481 30.8856 66.651 31.3451L63.8919 30.0064C63.8127 29.9651 63.7251 29.9388 63.6345 29.9288C63.5439 29.9189 63.452 29.9255 63.3642 29.9485C63.2765 29.9714 63.1947 30.0101 63.1237 30.0623C63.0527 30.1144 62.994 30.179 62.9509 30.2522C62.9079 30.3254 62.8814 30.4058 62.8731 30.4884C62.8648 30.5711 62.8748 30.6544 62.9025 30.7335C62.9302 30.8126 62.9752 30.8858 63.0346 30.9488C63.094 31.0119 63.1667 31.0634 63.2484 31.1004L65.9412 32.4072C64.4905 34.4215 62.9055 36.3531 61.1952 38.1911L55.8895 35.9694C55.7251 35.9005 55.5373 35.8938 55.3674 35.9509C55.1975 36.0079 55.0596 36.1239 54.9838 36.2735C54.908 36.423 54.9007 36.5938 54.9634 36.7483C55.0261 36.9027 55.1538 37.0282 55.3182 37.0971L60.2826 39.1858C57.5528 42.0884 54.5928 44.8492 52.4129 46.5283C52.199 46.6938 51.9382 46.8012 51.6603 46.838C51.3824 46.8748 51.0987 46.8397 50.8418 46.7366C50.5848 46.6334 50.3651 46.4665 50.2077 46.255C50.0504 46.0435 49.9618 45.7959 49.9521 45.5407C49.7708 41.0033 50.6677 32.5739 52.2549 27.1286L57.5489 29.2901C57.6364 29.3263 57.7315 29.345 57.8277 29.345C57.9838 29.345 58.1351 29.2964 58.2565 29.2072C58.3779 29.1181 58.462 28.9938 58.4949 28.855C58.5277 28.7163 58.5073 28.5715 58.437 28.4448C58.3667 28.3181 58.2507 28.2172 58.1085 28.1588L52.6332 25.9229C52.8232 25.3529 53.0478 24.7929 53.3059 24.2455C54.1405 22.5292 55.2558 21.4795 56.7338 21.0362C59.5222 20.1904 62.7141 21.8093 62.7473 21.8288V21.8376ZM64.3228 9.51269L62.8214 16.2754C62.2013 14.7824 62.0824 13.4135 62.4723 12.1812C62.8203 11.1566 63.4584 10.2333 64.3228 9.50382V9.51269ZM72.6176 15.4491C72.3829 16.2048 71.9538 16.8989 71.3658 17.474C70.5858 18.2222 69.4984 18.7193 68.1036 18.9652L72.6176 15.4491Z" fill="#987F61"/>
<path d="M30.0126 26.8823C27.5636 21.3856 22.0064 17.7667 16.342 17.7667H16.184C16.1665 17.7241 16.147 17.6798 16.1275 17.6373C15.0141 15.1602 11.6525 14.0538 8.62042 15.1709C7.22469 15.6713 6.07225 16.6098 5.37191 17.8164C5.02175 18.4064 4.81812 19.0591 4.77533 19.7285C4.73255 20.3979 4.85166 21.0676 5.12427 21.6906C5.35125 22.2025 5.68197 22.671 6.09921 23.0719C3.6638 26.7085 3.31477 31.613 5.26466 36.0032C7.71567 41.4999 13.1968 45.1118 18.8905 45.1206C19.7757 46.4451 21.439 47.2129 23.2368 47.2129C23.9991 47.2118 24.754 47.0763 25.4597 46.8139C28.2441 45.7891 29.6812 43.0904 28.6633 40.8137C28.6341 40.7517 28.6048 40.6896 28.5736 40.6275C31.5608 36.927 32.1458 31.668 30.0126 26.8823ZM25.2842 39.5282C24.9994 39.8126 24.8454 40.1855 24.8537 40.5701C24.8621 40.9546 25.0321 41.3217 25.329 41.5957C25.4398 41.6972 25.5273 41.8177 25.5864 41.9503C25.912 42.679 25.2822 43.6294 24.2215 44.0248C23.1607 44.4202 21.9694 44.1365 21.6437 43.406C21.6219 43.351 21.6043 43.2948 21.5911 43.2376C21.5025 42.878 21.272 42.5604 20.9431 42.3451C20.6143 42.1297 20.21 42.0315 19.8069 42.0691C15.1272 42.4999 10.4221 39.5406 8.34353 34.8755C6.58864 30.9463 7.11901 26.5561 9.68701 23.6925C9.84658 23.5146 9.95937 23.306 10.0168 23.0825C10.0742 22.859 10.0747 22.6265 10.0183 22.4028C9.96184 22.179 9.84996 21.97 9.69118 21.7916C9.53239 21.6132 9.33089 21.4701 9.10204 21.3732C8.70029 21.2162 8.37951 20.9258 8.20509 20.5611C8.1179 20.3396 8.08376 20.1036 8.10494 19.8691C8.12613 19.6345 8.20215 19.4068 8.32794 19.2012C8.66339 18.6318 9.21293 18.1912 9.87615 17.96C11.1904 17.4741 12.6489 17.8429 13.0603 18.7632C13.1384 18.9449 13.1749 19.1392 13.1676 19.3341C13.1611 19.5542 13.2078 19.7729 13.3044 19.9748C13.401 20.1766 13.5451 20.3568 13.7266 20.5025C13.908 20.6483 14.1224 20.756 14.3546 20.8182C14.5869 20.8804 14.8313 20.8956 15.0706 20.8626C15.5017 20.803 15.9372 20.7734 16.3732 20.7739C20.7058 20.7739 25.0092 23.6535 26.9513 28.0082C28.7842 32.1503 28.1329 36.6699 25.2842 39.5282Z" fill="#987F61"/>
<path d="M23.2037 37.56C23.1105 37.6023 23.0077 37.6242 22.9035 37.6238C22.7496 37.6232 22.6006 37.5753 22.4804 37.4879C22.3603 37.4006 22.2761 37.2789 22.2415 37.1426C22.207 37.0062 22.2241 36.8633 22.2901 36.737C22.3561 36.6106 22.4671 36.5082 22.6051 36.4464C23.5278 36.0322 24.2322 35.3021 24.5638 34.4163C24.8953 33.5304 24.827 32.5612 24.3737 31.7211C24.2975 31.5736 24.2882 31.4047 24.3477 31.251C24.4073 31.0973 24.531 30.971 24.6921 30.8996C24.8531 30.8281 25.0387 30.8171 25.2086 30.8689C25.3785 30.9208 25.5191 31.0314 25.6002 31.1767C25.9029 31.7399 26.0806 32.3517 26.1232 32.9773C26.1658 33.6029 26.0725 34.23 25.8485 34.8228C25.6245 35.4155 25.2742 35.9624 24.8178 36.432C24.3613 36.9017 23.8075 37.285 23.1881 37.56H23.2037Z" fill="#987F61"/>
<path d="M38.4382 46.9397C38.4378 47.5062 38.6223 48.0601 38.9681 48.5313C39.314 49.0025 39.8058 49.3698 40.3813 49.5867C40.9568 49.8037 41.5901 49.8606 42.2012 49.7501C42.8122 49.6397 43.3735 49.3669 43.814 48.9663C44.2546 48.5657 44.5545 48.0553 44.676 47.4997C44.7974 46.944 44.7349 46.3681 44.4963 45.8448C44.2577 45.3215 43.8538 44.8743 43.3356 44.5597C42.8175 44.2452 42.2083 44.0775 41.5854 44.0779C40.7512 44.0793 39.9516 44.3813 39.3617 44.9176C38.7718 45.454 38.4398 46.1811 38.4382 46.9397ZM39.8032 46.9397C39.8032 46.6187 39.9078 46.305 40.104 46.0382C40.3001 45.7713 40.5789 45.5634 40.905 45.4406C41.2311 45.3179 41.5899 45.2859 41.9361 45.3486C42.2822 45.4113 42.6001 45.566 42.8496 45.7931C43.099 46.0202 43.2688 46.3094 43.3374 46.6243C43.406 46.9391 43.3704 47.2654 43.2351 47.5618C43.0997 47.8582 42.8708 48.1115 42.5771 48.2895C42.2834 48.4676 41.9383 48.5625 41.5854 48.5621C41.1125 48.5616 40.6592 48.3905 40.325 48.0863C39.9909 47.7821 39.8032 47.3697 39.8032 46.9397Z" fill="#987F61"/>
<path d="M25.7151 10.4613C25.7151 9.80004 25.4995 9.15363 25.0956 8.60378C24.6917 8.05392 24.1176 7.62529 23.4458 7.37208C22.7741 7.11887 22.0348 7.05244 21.3216 7.18119C20.6083 7.30993 19.9531 7.62807 19.4386 8.0954C18.9241 8.56273 18.5736 9.15826 18.4312 9.80672C18.2889 10.4552 18.3612 11.1275 18.6389 11.7386C18.9167 12.3497 19.3874 12.8722 19.9917 13.2401C20.5959 13.608 21.3065 13.8047 22.0337 13.8054C23.0094 13.8054 23.9452 13.4532 24.6355 12.8261C25.3257 12.1991 25.7141 11.3485 25.7151 10.4613ZM24.3502 10.4613C24.3505 10.8771 24.2153 11.2837 23.9616 11.6297C23.7079 11.9757 23.3471 12.2455 22.9248 12.4051C22.5025 12.5646 22.0377 12.6067 21.5891 12.526C21.1405 12.4454 20.7282 12.2456 20.4044 11.9519C20.0807 11.6583 19.8599 11.2839 19.7701 10.8761C19.6803 10.4684 19.7254 10.0456 19.8998 9.66118C20.0741 9.27675 20.3699 8.94797 20.7498 8.7164C21.1296 8.48482 21.5764 8.36085 22.0337 8.36014C22.6472 8.35967 23.2358 8.58072 23.6702 8.97471C24.1046 9.3687 24.3491 9.9034 24.3502 10.4613Z" fill="#987F61"/>
<path d="M78.836 38.1327C78.8363 37.4191 78.6039 36.7214 78.1681 36.128C77.7323 35.5346 77.1126 35.072 76.3876 34.7989C75.6626 34.5259 74.8648 34.4545 74.0952 34.5939C73.3256 34.7333 72.6187 35.0772 72.0641 35.582C71.5094 36.0868 71.132 36.73 70.9794 37.43C70.8269 38.1299 70.9062 38.8554 71.2072 39.5144C71.5082 40.1734 72.0175 40.7364 72.6705 41.1321C73.3235 41.5278 74.091 41.7385 74.8757 41.7375C75.9259 41.7351 76.9323 41.3545 77.6746 40.6789C78.4168 40.0032 78.8344 39.0877 78.836 38.1327ZM77.471 38.1327C77.471 38.6008 77.3183 39.0583 77.0322 39.4474C76.7462 39.8365 76.3396 40.1396 75.8639 40.3185C75.3883 40.4974 74.865 40.5439 74.3603 40.4522C73.8555 40.3605 73.3921 40.1347 73.0285 39.8034C72.665 39.472 72.4177 39.0501 72.318 38.5909C72.2183 38.1317 72.2706 37.656 72.4684 37.2238C72.6662 36.7917 73.0005 36.4227 73.429 36.1634C73.8575 35.9041 74.361 35.7663 74.8757 35.7674C75.5644 35.7692 76.2242 36.0192 76.7107 36.4626C77.1971 36.9059 77.4705 37.5064 77.471 38.1327Z" fill="#987F61"/>
<path d="M4.96436 45.7074C4.96397 46.1048 5.09321 46.4934 5.33573 46.824C5.57825 47.1546 5.92315 47.4123 6.32679 47.5646C6.73044 47.717 7.17471 47.757 7.60338 47.6797C8.03206 47.6024 8.42588 47.4112 8.73505 47.1303C9.04421 46.8494 9.25481 46.4915 9.34021 46.1017C9.42561 45.712 9.38197 45.3079 9.21482 44.9408C9.04767 44.5736 8.76451 44.2597 8.40116 44.0389C8.03781 43.8181 7.61061 43.7002 7.17358 43.7002C6.58815 43.7007 6.02682 43.9122 5.61268 44.2885C5.19854 44.6648 4.96539 45.175 4.96436 45.7074ZM6.32928 45.7074C6.32928 45.5555 6.3788 45.4071 6.47157 45.2808C6.56434 45.1546 6.6962 45.0562 6.85048 44.998C7.00476 44.9399 7.17452 44.9247 7.33829 44.9544C7.50207 44.984 7.65251 45.0571 7.77059 45.1645C7.88867 45.2719 7.96908 45.4087 8.00166 45.5576C8.03424 45.7065 8.01752 45.8609 7.95361 46.0012C7.88971 46.1415 7.78149 46.2614 7.64265 46.3457C7.5038 46.4301 7.34057 46.4751 7.17358 46.4751C6.94966 46.4751 6.73491 46.3942 6.57657 46.2503C6.41823 46.1063 6.32928 45.911 6.32928 45.7074Z" fill="#987F61"/>
<path d="M55.2558 5.81583C55.2558 5.41842 55.1262 5.02994 54.8834 4.69954C54.6406 4.36913 54.2954 4.11164 53.8916 3.95964C53.4878 3.80764 53.0435 3.76796 52.6149 3.84562C52.1863 3.92328 51.7927 4.11479 51.4838 4.39592C51.1749 4.67705 50.9646 5.03518 50.8796 5.42499C50.7946 5.81481 50.8386 6.21879 51.0061 6.58585C51.1736 6.9529 51.4571 7.26654 51.8207 7.48707C52.1842 7.7076 52.6115 7.82512 53.0486 7.82477C53.634 7.82384 54.1951 7.61182 54.6089 7.23522C55.0227 6.85863 55.2553 6.34818 55.2558 5.81583ZM53.8909 5.81583C53.8909 5.96775 53.8414 6.11626 53.7485 6.24256C53.6556 6.36885 53.5237 6.46726 53.3693 6.52532C53.2149 6.58337 53.045 6.59847 52.8812 6.56871C52.7174 6.53894 52.5669 6.46564 52.4489 6.35809C52.3309 6.25054 52.2507 6.11357 52.2183 5.96452C52.1859 5.81547 52.203 5.66105 52.2672 5.52079C52.3314 5.38053 52.4399 5.26075 52.579 5.1766C52.7181 5.09245 52.8815 5.04772 53.0486 5.04807C53.2722 5.04854 53.4864 5.12963 53.6443 5.27357C53.8022 5.4175 53.8909 5.61251 53.8909 5.81583Z" fill="#987F61"/>
<path d="M42.0436 27.698C45.0425 24.0915 48.3164 18.5505 46.7974 12.646C45.5378 7.70965 41.1681 3.50913 33.815 0.159704C33.6171 0.0699678 33.4014 0.0171294 33.1806 0.0042954C32.9599 -0.0085386 32.7385 0.0188908 32.5296 0.084971C32.3207 0.151051 32.1284 0.254448 31.9641 0.389082C31.7997 0.523717 31.6667 0.686871 31.5727 0.868952C29.4278 5.01805 27.5364 9.11928 28.0629 13.6673C28.6595 18.8768 32.4072 23.6642 39.5204 28.3044C39.6557 28.3925 39.8049 28.4613 39.963 28.5083C39.7252 31.8028 39.0095 34.6221 37.8669 36.7321C37.8272 36.8052 37.8037 36.8847 37.7978 36.9661C37.7918 37.0474 37.8036 37.1291 37.8324 37.2063C37.8612 37.2835 37.9064 37.3548 37.9656 37.4162C38.0247 37.4775 38.0965 37.5276 38.1769 37.5637C38.2712 37.6052 38.3744 37.627 38.4792 37.6275C38.6065 37.6273 38.7312 37.5949 38.8394 37.5338C38.9476 37.4728 39.0349 37.3854 39.0914 37.2817C40.3374 34.9767 41.1076 31.9216 41.3436 28.3683C41.518 28.2732 41.6715 28.1493 41.7959 28.003C41.8778 27.9072 41.9636 27.8062 42.0494 27.7016L42.0436 27.698ZM41.3143 23.2794C41.0082 18.9725 40.002 14.717 38.5084 11.6229C38.4735 11.5468 38.4223 11.4778 38.3578 11.42C38.2932 11.3621 38.2166 11.3165 38.1325 11.2858C38.0483 11.2551 37.9583 11.24 37.8677 11.2413C37.777 11.2426 37.6876 11.2604 37.6046 11.2935C37.5215 11.3266 37.4466 11.3744 37.3841 11.4341C37.3216 11.4938 37.2729 11.5643 37.2406 11.6413C37.2084 11.7184 37.1934 11.8005 37.1965 11.8829C37.1996 11.9653 37.2207 12.0463 37.2585 12.1212C38.8692 15.4617 39.8889 20.2172 40.0313 24.8876C34.6515 21.1002 31.8086 17.32 31.3543 13.3517C30.978 10.0573 32.2298 6.83727 33.8443 3.58005C39.3566 6.35853 42.6285 9.63348 43.5742 13.3322C44.4907 16.9033 43.1355 20.4335 41.3143 23.2794Z" fill="#987F61"/>
</g>
<defs>
<clipPath id="clip0_21_779">
<rect width="80" height="90" fill="white"/>
</clipPath>
</defs>
</svg>
